<?xml version="1.0" encoding="utf-8"?><svg xmlns="http://www.w3.org/2000/svg" xmlns:xlink="http://www.w3.org/1999/xlink"><symbol viewBox="0 0 123.14 123.14" id="amtswege" xmlns="http://www.w3.org/2000/svg"><path fill="none" d="M0 0h123.14v123.14H0z"/><path fill="currentColor" d="M33.86 33.779l.012-6 43.1.09-.012 6zM33.87 40.09h43.1v6h-43.1zm0 12.31h43.1v6h-43.1zm8.41 31.82l-4.11 8.22h-4.3v6h8.01l2.04-4.09 4.1 4.09h10.47v-6H50.5l-8.22-8.22z"/><path fill="currentColor" d="M114 62.25L101 49.3l-5.65 5.64V6.23H15.47v110.68h79.89v-36.1zm-8.49 0L75 92.66h-4.49V88.2L101 57.78zm-16.15 48.66H21.47V12.23h67.89v48.69L64.52 85.7v13h13l11.84-11.9z"/><path fill="currentColor" d="M33.87 64.74H58.5v6H33.87z"/></symbol><symbol viewBox="0 0 123.14 123.14" id="burger" xmlns="http://www.w3.org/2000/svg"><path fill="none" d="M0 0h123.14v123.14H0z"/><path d="M17.67 27.59h87v-6h-87zM17.67 58.57h87v6h-87zM17.67 95.49h87v6h-87z"/></symbol><symbol viewBox="0 0 200 200" id="check" xmlns="http://www.w3.org/2000/svg"><path fill="none" stroke="currentColor" stroke-miterlimit="10" stroke-width="10" d="M36.77 116.11l35.91 41.9 94.78-114.72"/></symbol><symbol viewBox="-6 -6 24 24" fill="currentColor" id="chevron-down" xmlns="http://www.w3.org/2000/svg"><path d="M5.182 9.864a15.5 15.5 0 01-4.016-3.522c-1.247-1.406-2.159-2.673-2.2-2.714l2.03-1.492a24.961 24.961 0 005.015 5.283 25.411 25.411 0 004.993-5.283l2.03 1.492a36.107 36.107 0 01-2.2 2.693 15.038 15.038 0 01-4.02 3.522H5.182z" data-name="Path 239"/></symbol><symbol viewBox="-9 -5 24 24" id="chevron-left" xmlns="http://www.w3.org/2000/svg"><path d="M0 7.852a15.5 15.5 0 003.522 4.016c1.406 1.247 2.673 2.159 2.714 2.2l1.492-2.03a24.961 24.961 0 01-5.283-5.015A25.411 25.411 0 017.728 2.03L6.236 0c-.062.041-1.305.953-2.693 2.2A15.038 15.038 0 00.021 6.22v1.632z" fill="currentColor"/></symbol><symbol viewBox="-9 -5 24 24" id="chevron-right" xmlns="http://www.w3.org/2000/svg"><path fill="currentColor" d="M7.728 6.216A15.5 15.5 0 004.206 2.2C2.8.953 1.533.041 1.492 0L0 2.03a24.961 24.961 0 015.283 5.015A25.411 25.411 0 010 12.038l1.492 2.03a36.107 36.107 0 002.693-2.2 15.038 15.038 0 003.522-4.02V6.216z"/></symbol><symbol viewBox="-6 -6 24 24" id="chevron-up" xmlns="http://www.w3.org/2000/svg"><path data-name="Path 239" d="M6.818 2.136a15.5 15.5 0 014.016 3.522c1.247 1.406 2.159 2.673 2.2 2.714l-2.03 1.492a24.961 24.961 0 00-5.015-5.283A25.411 25.411 0 00.996 9.864l-2.03-1.492a36.107 36.107 0 012.2-2.693 15.038 15.038 0 014.02-3.522h1.632z"/></symbol><symbol viewBox="0 0 123.15 123.15" id="clock" xmlns="http://www.w3.org/2000/svg"><path d="M61.57 98.52A36.94 36.94 0 1187.7 87.7a36.73 36.73 0 01-26.13 10.82zm0-67.73a30.79 30.79 0 1030.79 30.78 30.82 30.82 0 00-30.79-30.78z"/><path d="M110.83 61.57h-6.16a43.1 43.1 0 00-43.1-43.1v-6.16a49.27 49.27 0 0149.26 49.26zm-36.94 3.08h-15.4V43.1h6.16v15.39h9.24v6.16z"/><path fill="none" d="M0 0h123.15v123.15H0z"/></symbol><symbol viewBox="0 0 123.14 123.14" id="close" xmlns="http://www.w3.org/2000/svg"><path fill="none" d="M0 0h123.14v123.14H0z"/><path fill="#292929" d="M103.72 23.63l-4.24-4.24-37.9 37.9-37.91-37.9-4.24 4.24 37.9 37.9-37.9 37.91 4.24 4.24 37.91-37.9 37.9 37.9 4.24-4.24-37.9-37.91 37.9-37.9z"/></symbol><symbol viewBox="0 0 123.24 123.24" id="contact" xmlns="http://www.w3.org/2000/svg"><path fill="#292929" d="M24.82 6.19l-.08 30.88h-6.22v6.16h6.2l-.1 36.94h-6.11v6.16h6.09l-.08 30.69 80.05.21.3-110.83-80.05-.21zm73.62 104.87l-67.73-.18.26-98.51 67.73.18-.26 98.51z"/><path fill="#292929" d="M64.96 49.39c5.94 0 10.78-4.83 10.78-10.78 0-5.94-4.83-10.78-10.78-10.78-5.94 0-10.78 4.83-10.78 10.78 0 5.94 4.83 10.78 10.78 10.78zm0-15.39c2.54 0 4.61 2.07 4.61 4.61s-2.07 4.61-4.61 4.61c-2.54 0-4.61-2.07-4.61-4.61S62.41 34 64.96 34zM57.18 87.15c-2.38-9.84-2.91-15-2.98-24.47 3.56-.58 7.17-.91 10.76-.96 3.6.05 7.21.37 10.76.96-.07 9.47-.6 14.63-2.98 24.47l5.99 1.45c2.71-11.2 3.16-16.91 3.16-28.41v-2.6l-2.48-.5A79.2 79.2 0 0065 55.56c-4.83.07-9.77.58-14.5 1.53l-2.48.5v2.6c0 11.5.46 17.22 3.16 28.41l6-1.45z"/></symbol><symbol viewBox="0 0 123.14 123.14" id="contact_alternative" xmlns="http://www.w3.org/2000/svg"><path class="akcls-1" d="M61.57 43.18A18.48 18.48 0 1043.1 24.71a18.49 18.49 0 0018.47 18.47zm0-30.78a12.31 12.31 0 11-12.31 12.31A12.32 12.32 0 0161.57 12.4zm28.31 43.03a155.9 155.9 0 00-28.26-3h-.09a156.1 156.1 0 00-28.27 3l-2.48.5v2.67c0 23.1.86 33.85 6.25 56.11l6-1.45C38 92.4 37 81.91 37 61a149.56 149.56 0 0124.62-2.41A149.56 149.56 0 0186.19 61c-.06 20.91-1 31.4-6.06 52.26l6 1.45c5.38-22.26 6.24-33 6.24-56.11v-2.67z"/><path fill="none" d="M0 0h123.14v123.14H0z"/></symbol><symbol viewBox="0 0 33 34" id="contact_loggedin" xmlns="http://www.w3.org/2000/svg"><g transform="translate(10787.234 -9741.766)"><circle cx="16" cy="16" r="16" transform="translate(-10787.234 9741.766)" fill="#d6d1ca"/><path d="M-10778.114 9771.953a50.348 50.348 0 01-1-11.71v-.683l.635-.129a40.034 40.034 0 017.236-.768h.023a39.941 39.941 0 017.233.768l.637.129v.683a50.4 50.4 0 01-1 11.707 15.8 15.8 0 01-13.764.003zm6.88-15.657a4.73 4.73 0 114.733-4.729 4.732 4.732 0 01-4.733 4.729z" fill="#f3f1ef"/></g></symbol><symbol viewBox="0 0 33 34" id="contact_notification" xmlns="http://www.w3.org/2000/svg"><g transform="translate(10787.234 -9741.766)"><circle cx="16" cy="16" r="16" transform="translate(-10787.234 9741.766)" fill="#d6d1ca"/><path d="M-10778.114 9771.953a50.348 50.348 0 01-1-11.71v-.683l.635-.129a40.034 40.034 0 017.236-.768h.023a39.941 39.941 0 017.233.768l.637.129v.683a50.4 50.4 0 01-1 11.707 15.8 15.8 0 01-13.764.003zm6.88-15.657a4.73 4.73 0 114.733-4.729 4.732 4.732 0 01-4.733 4.729z" fill="#f3f1ef"/><g transform="translate(-10764.234 9765.765)" fill="#ff5a64" stroke="#ffced1" stroke-width="2"><circle cx="4" cy="4" r="4" stroke="none"/><circle cx="4" cy="4" r="5" fill="none"/></g></g></symbol><symbol viewBox="0 0 123.24 123.24" id="download" xmlns="http://www.w3.org/2000/svg"><path class="anst3" d="M24.9 38.05l-.21-.22"/><path fill="#292929" d="M100.04 72.04l-6.11.79c.9 6.9 1.41 14 1.52 21.15h-61.5c.11-7.15.62-14.26 1.52-21.15l-6.11-.79c-1.06 8.15-1.6 16.57-1.6 25.03v3.08h73.88v-3.08c0-8.47-.54-16.89-1.6-25.03z"/><path fill="#292929" d="M66.72 81.67c2.72-1.39 5.94-4.22 9.82-8.62 3-3.4 5.24-6.46 5.34-6.59l-4.97-3.64c-2.19 2.99-5.86 7.41-9.14 10.45V26.18h-6.16v47.07c-3.27-3.03-6.93-7.45-9.11-10.42l-4.97 3.64c.09.13 2.33 3.18 5.34 6.59 3.88 4.39 7.1 7.22 9.82 8.62h4.03z"/></symbol><symbol viewBox="0 0 123.24 123.24" id="email" xmlns="http://www.w3.org/2000/svg"><path fill="#292929" d="M18.52 30.92v61.57h86.2V30.92h-86.2zm6.16 55.41V56.38l36.94 8.48 36.94-8.48v29.95H24.68zm72.96-36.06l-36.01 8.27-36.01-8.27c-.92-5.82-.93-12.51-.93-12.59v-.62h73.89v.62c-.01.08-.03 6.78-.94 12.59z"/></symbol><symbol viewBox="0 0 123.15 123.15" id="embed" xmlns="http://www.w3.org/2000/svg"><path d="M0 0h123.15v123.15H0z" fill="none"/><path d="M88.943 31.238l-4.24 4.24 28.66 28.66-28.13 28.13 4.24 4.25 32.38-32.38zm-53.83-.712l-33 32.99 32.38 32.38 4.24-4.25-28.13-28.13 28.75-28.75z" fill="currentColor"/><path d="M74.29 23.853l5.291 1.709-32.414 79.006-5.291-1.709z"/></symbol><symbol viewBox="0 0 123.15 123.15" id="euro" xmlns="http://www.w3.org/2000/svg"><path fill="none" d="M0 0h123.15v123.15H0z"/><path d="M73.89 98.51A37.07 37.07 0 0139 73.82h34.9v-6H37.42a36.12 36.12 0 010-12.5h36.5v-6h-35a37.08 37.08 0 0135-24.86 36.65 36.65 0 0122.75 7.84l3.69-4.73a42.59 42.59 0 00-26.47-9.11 43.1 43.1 0 00-41.26 30.86H18.47v6h12.84a43.26 43.26 0 00-.45 6.16 44.11 44.11 0 00.47 6.34H18.47v6h14.21a43.08 43.08 0 0041.21 30.69 42.53 42.53 0 0026.47-9.12l-3.69-4.72a36.65 36.65 0 01-22.78 7.84z" fill="#292929"/></symbol><symbol viewBox="0 0 200 200" id="external" xmlns="http://www.w3.org/2000/svg"><defs><style>.arcls-1{fill:none;stroke:#1a1a18;stroke-miterlimit:10;stroke-width:10px}</style></defs><path class="arcls-1" d="M73.21 129.49L176.96 25.75M178.68 90c0-.11 1.82-11.72 2.71-25.88 1-15.69.42-27.67-1.64-35.69l-5.5-5.5c-8-2.06-20-2.61-35.68-1.63-13.43.84-24.67 2.52-25.91 2.71M181.87 108.47v73.15H21.59V21.34h72.72"/></symbol><symbol shape-rendering="geometricPrecision" text-rendering="geometricPrecision" image-rendering="optimizeQuality" fill-rule="evenodd" clip-rule="evenodd" viewBox="0 0 333333 333333" id="facebook" xmlns="http://www.w3.org/2000/svg"><path d="M302077 0H31255C14069 0 1 14068 1 31256v270822c0 17186 14068 31254 31254 31254h270822c17186 0 31254-14068 31254-31254l2-270824C333333 14068 319265 0 302079 0h-2zM187907 95783h35461V53254h-35461c-27307 0-49588 22274-49588 49618v21255h-28355v42539h28350v113412h42533V166666h35427l7094-42539h-42523v-21255c0-3848 3247-7094 7060-7094v6h2z" fill="#3b5998"/></symbol><symbol viewBox="0 0 123.15 123.15" id="fullscreen" xmlns="http://www.w3.org/2000/svg"><path fill="none" d="M0 0h123.15v123.15H0z"/><path d="M94.32 24.54L71.75 47.11 76 51.39l22.58-22.56a79.84 79.84 0 01-.92 13.57l6 .93c0-.16.59-3.83.87-8.28.36-5.75.08-9.95-.84-12.81l-2.8-2.8c-2.85-.92-7.06-1.19-12.8-.83-4.45.27-8.13.84-8.28.86l.92 6a79.35 79.35 0 0113.59-.93zm-69.76 4.27l22.57 22.57 4.27-4.28-22.55-22.55a78.87 78.87 0 0113.57.91l.93-6c-.16 0-3.84-.59-8.29-.87-5.74-.35-10-.08-12.8.84l-2.8 2.8c-.92 2.86-1.19 7.06-.84 12.8.28 4.45.85 8.13.87 8.29l6-.93a79.3 79.3 0 01-.93-13.58zm4.26 69.78L51.39 76l-4.28-4.28L24.56 94.3a78.87 78.87 0 01.91-13.57l-6-.93c0 .16-.59 3.84-.87 8.29-.35 5.74-.08 9.94.84 12.8l2.8 2.8c2.85.92 7.06 1.19 12.8.83 4.45-.27 8.13-.84 8.29-.86l-.93-6a79.3 79.3 0 01-13.58.93zm69.75-4.27L76 71.75 71.73 76l22.55 22.58a78.87 78.87 0 01-13.57-.91l-.92 6c.15 0 3.83.59 8.28.87 5.74.35 10 .08 12.8-.84l2.8-2.8c.92-2.85 1.2-7.06.84-12.8-.28-4.45-.85-8.13-.87-8.29l-6 .93a79.3 79.3 0 01.93 13.58z"/></symbol><symbol viewBox="0 0 200 200" id="handson" xmlns="http://www.w3.org/2000/svg"><path fill="#181715" d="M169.9 18.7l-2.7.6c-6.4 1.5-14.2 6.4-20.8 13l-3.5 3.5 7.5 7.5-70.3 70.3-7.2-6.9L18.6 161l2.3 3.4c2.1 3 4.4 5.9 7 8.4 2.6 2.6 5.4 5 8.4 7l3.4 2.3 54.8-54.8-7.2-6.9 70.2-70.2 7.5 7.5 3.5-3.5c6.6-6.6 11.4-14.4 12.9-20.8l.6-2.7-12.1-12zM38.6 169.2c-1.3-1-2.5-2.2-3.7-3.3l-.1-.1c-1.2-1.2-2.3-2.4-3.3-3.6L73 120.7l7.2 6.9-41.6 41.6zM164.8 43.6l-7.6-7.6c3.6-3 7.1-5 9.8-6.1l3.9 3.9c-1.1 2.7-3.1 6.1-6.1 9.8z"/><path fill="#181715" d="M39 78.7c6 2.4 12.5 2.7 18.7 1.1l24.1 24.1 7.1-7.1-28.6-28.6-3 1.2c-4.7 1.8-9.9 1.8-14.6 0-5-1.9-8.9-5.7-11-10.6-1-2.3-1.6-4.8-1.7-7.3 2.7 2.3 5.5 4.4 8.5 6.3l1.3.9h1.6c1.2 0 5.5-.5 10.8-5.8 5.4-5.3 5.8-9.7 5.8-11v-1.5l-.8-1.3c-1.9-2.9-4.1-5.7-6.3-8.4 2.2.1 4.4.5 6.5 1.4 5 1.9 8.9 5.7 11 10.6 2.1 4.9 2.2 10.3.3 15.3l-1.2 3L96 89.8l7.1-7.1L79 58.6c1.8-6.6 1.3-13.5-1.5-19.8-3.2-7.3-9.1-13-16.5-15.9-7.1-2.8-14.8-2.8-21.9 0l-7.2 2.8 5.6 5.4c3.7 3.6 7.1 7.5 10.1 11.7-.4.7-1.1 1.8-2.3 3-1.2 1.2-2.3 2-3 2.4-4.2-3-8.2-6.3-11.8-10l-5.4-5.5-2.8 7.2c-2.9 7.5-2.8 15.6.4 23 3 7.3 8.9 12.9 16.3 15.8zM160.9 122.9c-6-2.4-12.5-2.7-18.7-1.1l-24.6-24.6-7.1 7.1 29 29 3-1.2c4.7-1.8 9.9-1.8 14.6 0 7.6 3 12.4 10.2 12.7 17.9-2.7-2.3-5.5-4.4-8.5-6.4l-1.3-.9h-1.6c-1.2 0-5.5.5-10.8 5.8-5.4 5.3-5.8 9.7-5.8 11v1.5l.8 1.3c2 2.9 4.1 5.7 6.3 8.4-2.2-.1-4.4-.5-6.5-1.4-5-1.9-8.9-5.7-11-10.6-2.1-4.9-2.2-10.3-.3-15.3l1.2-3-29-29-7.1 7.1 24.6 24.6c-1.8 6.6-1.3 13.5 1.5 19.8 3.2 7.3 9.1 13 16.5 15.9 3.5 1.4 7.2 2.1 10.9 2.1s7.4-.7 11-2.1l7.2-2.8-5.6-5.4c-3.7-3.6-7.1-7.6-10.1-11.8.4-.7 1.1-1.8 2.3-3 1.2-1.2 2.3-2 3-2.4 4.2 3 8.2 6.4 11.8 10.1l5.4 5.6 2.8-7.2c2.9-7.5 2.8-15.6-.4-23-2.8-7.4-8.7-13-16.2-16z"/></symbol><symbol viewBox="0 0 200 200" id="home" xmlns="http://www.w3.org/2000/svg"><path fill="currentColor" d="M178.54 96.46L100 17.93 21.46 96.46l7.08 7.08L40 92.07V180h120V92.07l11.46 11.47zM110 170H90v-45h20zm40 0h-30v-55H80v55H50V82.07l50-50 50 50z"/></symbol><symbol viewBox="0 0 123.15 123.15" id="info" xmlns="http://www.w3.org/2000/svg"><path fill="none" d="M0 0h123.15v123.15H0z"/><path fill="currentColor" d="M61.57 18.63a43 43 0 1043 43 43.07 43.07 0 00-43-43zm0 80.05a37 37 0 1137-37 37.07 37.07 0 01-37 37z"/><path fill="currentColor" d="M58.57 49.25h6v36.96h-6zm0-12.32h6v6.16h-6z"/></symbol><symbol viewBox="0 0 512 512" id="instagram" xmlns="http://www.w3.org/2000/svg"><path d="M96.1 23.2c-16.2 6.3-29.9 14.7-43.6 28.4C38.8 65.2 30.4 79 24.1 95.1c-6.1 15.6-10.2 33.5-11.4 59.7-1.2 26.2-1.5 34.6-1.5 101.4s.3 75.2 1.5 101.4c1.2 26.2 5.4 44.1 11.4 59.7 6.3 16.2 14.7 29.9 28.4 43.6 13.7 13.7 27.4 22.1 43.6 28.4 15.6 6.1 33.5 10.2 59.7 11.4 26.2 1.2 34.6 1.5 101.4 1.5 66.8 0 75.2-.3 101.4-1.5 26.2-1.2 44.1-5.4 59.7-11.4 16.2-6.3 29.9-14.7 43.6-28.4 13.7-13.7 22.1-27.4 28.4-43.6 6.1-15.6 10.2-33.5 11.4-59.7 1.2-26.2 1.5-34.6 1.5-101.4s-.3-75.2-1.5-101.4c-1.2-26.2-5.4-44.1-11.4-59.7C484 79 475.6 65.2 462 51.6c-13.7-13.7-27.4-22.1-43.6-28.4-15.6-6.1-33.5-10.2-59.7-11.4-26.2-1.2-34.6-1.5-101.4-1.5s-75.2.3-101.4 1.5c-26.3 1.1-44.2 5.3-59.8 11.4zM356.6 56c24 1.1 37 5.1 45.7 8.5 11.5 4.5 19.7 9.8 28.3 18.4 8.6 8.6 13.9 16.8 18.4 28.3 3.4 8.7 7.4 21.7 8.5 45.7 1.2 25.9 1.4 33.7 1.4 99.4s-.3 73.5-1.4 99.4c-1.1 24-5.1 37-8.5 45.7-4.5 11.5-9.8 19.7-18.4 28.3-8.6 8.6-16.8 13.9-28.3 18.4-8.7 3.4-21.7 7.4-45.7 8.5-25.9 1.2-33.7 1.4-99.4 1.4s-73.5-.3-99.4-1.4c-24-1.1-37-5.1-45.7-8.5-11.5-4.5-19.7-9.8-28.3-18.4-8.6-8.6-13.9-16.8-18.4-28.3-3.4-8.7-7.4-21.7-8.5-45.7-1.2-25.9-1.4-33.7-1.4-99.4s.3-73.5 1.4-99.4c1.1-24 5.1-37 8.5-45.7 4.5-11.5 9.8-19.7 18.4-28.3 8.6-8.6 16.8-13.9 28.3-18.4 8.7-3.4 21.7-7.4 45.7-8.5 25.9-1.2 33.7-1.4 99.4-1.4s73.5.2 99.4 1.4z" fill="#b63385"/><path d="M130.9 256.3c0 69.8 56.6 126.3 126.3 126.3S383.5 326 383.5 256.3 327 130 257.2 130s-126.3 56.5-126.3 126.3zm208.3 0c0 45.3-36.7 82-82 82s-82-36.7-82-82 36.7-82 82-82 82 36.7 82 82z" fill="#b63385"/><circle cx="388.6" cy="125" r="29.5" fill="#b63385"/></symbol><symbol viewBox="0 0 123.15 123.15" id="language" xmlns="http://www.w3.org/2000/svg"><path fill="none" d="M0 0h123.15v123.15H0z"/><path d="M61.53 15.41a46.15 46.15 0 1046.14 46.15 46.2 46.2 0 00-46.14-46.15zM99 76.06c-2.53-.74-6.27-1.72-11-2.63a57.54 57.54 0 000-23.81 106.19 106.19 0 0010.91-2.79A40 40 0 0199 76.06zm-59-14.5a50.35 50.35 0 011.1-10.88 134.94 134.94 0 0017.43 1.53v18.73a133.15 133.15 0 00-17.43 1.52 50.61 50.61 0 01-1.16-10.9zm24.53-37.69a45.94 45.94 0 0115.8 21 128.36 128.36 0 01-15.8 1.36zm-6 0V46.2a127.62 127.62 0 01-15.73-1.35 45.84 45.84 0 0115.73-20.97zm0 53.06v22.3A45.79 45.79 0 0142.8 78.29a127.62 127.62 0 0115.73-1.35zm6 22.3V76.94a133.53 133.53 0 0115.81 1.31 46 46 0 01-15.81 20.99zm0-28.31V52.21A134.18 134.18 0 0082 50.68a51.51 51.51 0 010 21.74 140.46 140.46 0 00-17.47-1.49zM96.2 41.36C94 42 90.59 43 86.34 43.81a51.33 51.33 0 00-13.47-20.76A40.33 40.33 0 0196.2 41.36zM50.22 23a51.37 51.37 0 00-13.43 20.81c-4.28-.81-7.67-1.81-9.94-2.45A40.35 40.35 0 0150.22 23zm-26 23.79a107.3 107.3 0 0011 2.8 56.08 56.08 0 00-1.25 11.93 56.93 56.93 0 001.25 12 104.38 104.38 0 00-11 2.8 40 40 0 010-29.48zm2.68 35c2.26-.69 5.64-1.6 9.93-2.45a51.27 51.27 0 0013.42 20.74 40.33 40.33 0 01-23.38-18.3zm46 18.28a51.21 51.21 0 0013.45-20.82c4.15.79 7.53 1.63 10 2.31a40.26 40.26 0 01-23.48 18.5z" fill="#292929"/></symbol><symbol viewBox="0 0 200 200" id="language-change" xmlns="http://www.w3.org/2000/svg"><path d="M102.9 55.1L97.6 30H20.1v105H82l8 24.8h90V55.1h-77.1zm-72.8-15h59.3l18.1 85H30.1v-85zm73.1 94.9l-7.6 9.4-3-9.4h10.6zm66.8 14.8h-65.9l14.9-18.5-14-66.2h65v84.7z"/><path d="M118.4 100.1H145c-.7 6.8-2.7 12-5.3 15.9-2.8-2.8-4.8-6.4-4.8-10.7h-10c0 7.3 3 13.1 7.4 17.5-2.6 1.5-5.3 2.1-7.6 2.1v10c4.8 0 10.7-1.8 16-5.8 7 4 14.7 5.8 19.2 5.8v-10c-2.4 0-7.3-1.1-12-3.3 3.7-5.3 6.4-12.4 7.1-21.5h5.5v-10h-14.1l-6.9-19.6-9.4 3.3 5.7 16.3h-17.4v10zm-38.7-20c-1.4-3.9-2.8-7.6-4.3-11.1s-2.9-6.6-4.4-9.4H59c-1.4 2.8-2.9 5.9-4.4 9.4-1.5 3.5-2.9 7.2-4.2 11.1-1.3 3.9-2.6 8-3.7 12.1-1.1 4.2-2.1 8.3-2.8 12.4h11.3c.6-3.4 1.2-6.7 1.9-10h15.4c.7 3.2 1.4 6.6 1.9 10h11.7c-.7-4.1-1.6-8.2-2.8-12.4-1-4.1-2.3-8.2-3.6-12.1zm-20.2 5.3c.8-2.7 1.6-5.4 2.4-8 .9-2.6 1.8-5.2 2.8-7.7h.4c1 2.5 1.9 5.1 2.8 7.7.9 2.6 1.7 5.3 2.4 8H59.5z"/></symbol><symbol shape-rendering="geometricPrecision" text-rendering="geometricPrecision" image-rendering="optimizeQuality" fill-rule="evenodd" clip-rule="evenodd" viewBox="0 0 333333 333333" id="linkedin" xmlns="http://www.w3.org/2000/svg"><path d="M302077 0H31255C14069 0 1 14068 1 31256v270822c0 17186 14068 31254 31254 31254h270822c17186 0 31254-14068 31254-31254l2-270824C333333 14068 319265 0 302079 0h-2zM142041 135879h34068v17465l493 1c4744-8512 16345-17465 33644-17465 35974-2 42628 22387 42628 51509v59324l-35529 1v-52589c0-12537-260-28675-18473-28675-18499 0-21333 13646-21333 27761v53503h-35496V135878zm-24630-30787c0 10198-8276 18473-18474 18473s-18477-8276-18477-18473c0-10198 8279-18474 18477-18474s18474 8276 18474 18474zm-36951 30787h36951v110836H80460V135879z" fill="#0077b5"/></symbol><symbol viewBox="0 0 200 200" id="microscope"><path fill="currentColor" d="M160 140.05A15 15 0 00150 126c-.93-28.35-12.92-53-30.09-62a15 15 0 00-10-13V35H70v70h5v20h30v-20h5V79.13a15.06 15.06 0 007.1-5.28C130 81.94 139.17 102.64 140 126a15 15 0 00-9.13 9H50v10h80.86a15.07 15.07 0 006.43 7.86 90 90 0 01-6.1 17.15H60v10h77.31l1.4-2.69a98.78 98.78 0 008.39-22.47 15 15 0 0012.9-14.8zM80 45h20v6a14.91 14.91 0 000 28.16V95H80zm15 70H85v-10h10zm10-45a5 5 0 115-5 5 5 0 01-5 5zm40 75a5 5 0 115-4.95 5 5 0 01-5 4.95zM80 20h20v10H80z"/></symbol><symbol viewBox="0 0 200 200" id="pause" xmlns="http://www.w3.org/2000/svg"><path fill="none" stroke="currentColor" stroke-miterlimit="10" stroke-width="10" d="M79.57 66.23v76.15M112.49 66.23v76.15"/></symbol><symbol viewBox="0 0 200 200" id="pin" xmlns="http://www.w3.org/2000/svg"><path fill="currentColor" d="M100.22 35.52h-2.43c-26.29.66-46.94 22.31-47 49.29 0 6 1.19 12.35 3.78 20.16 10.92 32.86 30.7 50.81 41.51 58.58l2.92 2.1 2.92-2.1c10.82-7.78 30.6-25.72 41.51-58.58 2.6-7.81 3.8-14.22 3.78-20.16-.06-26.97-20.7-48.63-46.99-49.29zm33.72 66.29c-9.1 27.4-24.77 43.41-34.94 51.42-10.17-8-25.83-24-34.94-51.42-2.24-6.75-3.28-12.14-3.27-17C60.84 63.33 77.17 46.08 98 45.52h2c20.8.56 37.13 17.81 37.18 39.32.04 4.83-1 10.22-3.24 16.97z"/><path fill="currentColor" d="M99 55.9a28.16 28.16 0 1028.16 28.16A28.19 28.19 0 0099 55.9zm0 46.31a18.16 18.16 0 1118.16-18.15A18.17 18.17 0 0199 102.21z"/></symbol><symbol viewBox="0 0 200 200" id="play" xmlns="http://www.w3.org/2000/svg"><path fill="none" stroke="currentColor" stroke-miterlimit="10" stroke-width="10" d="M83.42 135.07l61.67-36.4-61.85-36.59.18 72.99z"/></symbol><symbol viewBox="0 0 200 200" id="play-button" xmlns="http://www.w3.org/2000/svg"><path fill="none" stroke="#1a1a18" stroke-miterlimit="10" stroke-width="10" d="M74.11 139.09l61.66-36.41-61.85-36.59.19 73z"/><circle fill="none" stroke="#1a1a18" stroke-miterlimit="10" stroke-width="10" cx="97.84" cy="102.59" r="79.37"/></symbol><symbol viewBox="0 0 123.14 123.14" id="search" xmlns="http://www.w3.org/2000/svg"><path fill="none" d="M0 0h123.14v123.14H0z"/><path d="M103.74 99.44L73 68.69a30.84 30.84 0 10-4.25 4.24l30.75 30.76zM24.56 49.21a24.71 24.71 0 1124.71 24.71 24.74 24.74 0 01-24.71-24.71z"/></symbol><symbol viewBox="0 0 200 200" id="settings" xmlns="http://www.w3.org/2000/svg"><path fill="#181715" d="M114.7 180H85.3l-1.4-2.8c-2.8-5.7-4.7-11.8-5.7-18-1.6-.6-3.2-1.3-4.7-2-5.1 3.7-10.7 6.6-16.7 8.7l-3 1L33 146.1l1-3c2.1-6 5-11.6 8.7-16.7-.7-1.6-1.4-3.2-2-4.8-6.2-1-12.3-2.9-18-5.7l-2.8-1.4V85.3l2.8-1.4c5.7-2.8 11.8-4.7 18-5.7.6-1.6 1.3-3.2 2-4.7-3.7-5.1-6.6-10.7-8.7-16.7l-1-3L53.8 33l3 1c6 2.1 11.6 5 16.8 8.7 1.6-.7 3.2-1.4 4.8-2 1-6.2 2.9-12.3 5.6-18l1.4-2.8h29.4l1.4 2.8c2.8 5.7 4.7 11.8 5.7 18 1.6.6 3.2 1.3 4.8 2 5.1-3.7 10.7-6.6 16.7-8.7l3-1 20.8 20.8-1 3c-2.1 6-5 11.6-8.7 16.8.7 1.6 1.4 3.2 2 4.8 6.2 1 12.3 2.9 18 5.6l2.8 1.4v29.4l-2.8 1.4c-5.7 2.8-11.8 4.7-18 5.7-.6 1.6-1.3 3.2-2 4.8 3.7 5.1 6.6 10.7 8.7 16.7l1 3-20.8 20.8-3-1c-6-2.1-11.6-5-16.7-8.7-1.6.7-3.2 1.4-4.8 2-1 6.2-2.9 12.3-5.7 18l-1.5 2.5zm-23-10h16.6c2-4.8 3.3-9.9 3.9-15.1l.4-3.2 3.1-1c3.1-1 6.2-2.2 9-3.8l2.9-1.5 2.6 2c4.1 3.3 8.6 5.9 13.4 7.9l11.8-11.8c-2-4.8-4.7-9.3-7.9-13.4l-2.1-2.6 1.5-2.9c1.5-2.9 2.8-5.9 3.8-9l1-3.1 3.2-.4c5.2-.6 10.3-1.9 15.1-3.9V91.7c-4.8-2-9.9-3.3-15.1-3.9l-3.3-.4-1-3.1c-1-3.1-2.2-6.2-3.8-9l-1.5-2.9 2-2.6c3.3-4.1 6-8.6 7.9-13.5l-11.8-11.8c-4.8 2-9.3 4.7-13.4 7.9l-2.6 2.1-2.9-1.5c-2.9-1.5-5.9-2.8-9-3.8l-3.1-1-.4-3.2c-.6-5.2-1.9-10.3-3.9-15.1H91.7c-2 4.8-3.3 9.9-3.9 15.1l-.4 3.3-3.1 1c-3.1 1-6.2 2.2-9 3.8l-2.9 1.5-2.6-2c-4.1-3.3-8.6-5.9-13.5-7.9L44.6 56.4c2 4.8 4.7 9.3 7.9 13.4l2.1 2.6-1.5 2.9c-1.5 2.9-2.8 5.9-3.8 9l-1 3.1-3.2.4c-5.2.6-10.3 1.9-15.1 3.9v16.6c4.8 2 9.9 3.3 15.1 3.9l3.2.4 1 3.1c1 3.1 2.2 6.1 3.8 9l1.5 2.9-2.1 2.6c-3.3 4.1-5.9 8.6-7.9 13.4l11.8 11.8c4.8-2 9.3-4.7 13.4-7.9l2.6-2.1 2.9 1.5c2.9 1.5 5.9 2.8 9 3.8l3.1 1 .4 3.2c.6 5.2 1.9 10.3 3.9 15.1z"/><path fill="#181715" d="M100 127.3c-15.1 0-27.3-12.3-27.3-27.3 0-15.1 12.3-27.3 27.3-27.3 15.1 0 27.3 12.3 27.3 27.3 0 15.1-12.2 27.3-27.3 27.3zm0-44.6c-9.6 0-17.3 7.8-17.3 17.3 0 9.6 7.8 17.3 17.3 17.3 9.6 0 17.3-7.8 17.3-17.3 0-9.6-7.7-17.3-17.3-17.3z"/></symbol><symbol viewBox="0 0 123.15 123.15" id="share" xmlns="http://www.w3.org/2000/svg"><path fill="none" d="M0 0h123.15v123.15H0z"/><path fill="currentColor" d="M90.82 77.05a13.75 13.75 0 00-10.68 5.1L45.68 65a13.34 13.34 0 00.42-3.31 13.71 13.71 0 00-.43-3.34L80.16 41a13.77 13.77 0 10-3.11-8.7 13.57 13.57 0 00.43 3.33L43 53a13.78 13.78 0 100 17.38l34.47 17.14a13.4 13.4 0 00-.42 3.31 13.78 13.78 0 1013.77-13.78zm0-52.51a7.78 7.78 0 11-7.77 7.78 7.79 7.79 0 017.77-7.78zM32.33 69.43a7.78 7.78 0 117.77-7.78 7.79 7.79 0 01-7.77 7.78zM90.82 98.6a7.78 7.78 0 117.78-7.77 7.78 7.78 0 01-7.78 7.77z"/></symbol><symbol viewBox="0 0 123.15 123.15" id="sound" xmlns="http://www.w3.org/2000/svg"><path fill="none" d="M0 0h123.15v123.15H0z"/><path d="M65.21 103.74L41.57 76.9h-23V46.25h23l23.65-26.87 2.18 1.46a49 49 0 010 81.44zM24.55 70.9h19.73l21.91 24.87a43 43 0 000-68.42l-21.93 24.9H24.55z"/><path class="bjcls-2" d="M89 103.55l-4.55-3.9a58.57 58.57 0 00-.15-76.45l4.53-3.93a64.54 64.54 0 01.17 84.28z"/></symbol><symbol viewBox="0 0 200 200" id="syringe" xmlns="http://www.w3.org/2000/svg"><path fill="currentColor" d="M112.37 45.2L98.23 31.06l-7.07 7.07 14.14 14.14-63.64 63.64 10.61 10.61-7.07 7.07a15 15 0 00-2.92 17.06l-30.82 30.81 7.08 7.08 30.81-30.82a15 15 0 0017.06-2.92l7.07-7.07 10.61 10.61 63.64-63.64 14.14 14.14 7.07-7.07-14.14-14.14zm-53 102.53a5 5 0 01-7.07-7.07l7.07-7.07 7.07 7.07zm70.71-49.5l-14.17-14.14-7.07 7.07L123 105.3l-7.07 7.07L102 98.49l-7 7.07 13.89 13.89-7.07 7.07-14.19-14.15-7.08 7.08 14.15 14.14-10.61 10.6-28.28-28.28 56.56-56.57 28.29 28.29zM186.62 55.81l-42.43-42.43-7.07 7.07 10.61 10.61-21.21 21.21 7.07 7.07 21.21-21.21 7.07 7.07-21.21 21.21 7.07 7.07 21.21-21.21 10.61 10.61 7.07-7.07z"/></symbol><symbol viewBox="0 0 200 200" id="telefon" xmlns="http://www.w3.org/2000/svg"><defs><style>.blcls-1{fill:#1a1a18}</style></defs><path class="blcls-1" d="M136.53 141.31h-36.26l-10.62 10.62a96 96 0 01-42-42l10.63-10.61V63.06l-22-22-3.55 3.56-22.8 22.8v2.07A120.31 120.31 0 00130.1 189.66h2.07l22.91-22.9 3.45-3.45zm-32.12 10h28l10.43 10.43a95.37 95.37 0 01-43.35-5.49zM48.28 95.18l-4.94 4.94a95.37 95.37 0 01-5.49-43.35L48.28 67.2zm79.77 84.46A110.3 110.3 0 0120 71.54l7.41-7.42a105.56 105.56 0 00105.41 108.16c.88 0 1.77 0 2.65-.05zM124.63 110.65h10a45.17 45.17 0 00-45.12-45.12v10a35.17 35.17 0 0135.12 35.12zM89.51 10.2v10A90.55 90.55 0 01180 110.65h10A100.56 100.56 0 0089.51 10.2z"/><path class="blcls-1" d="M89.51 37.86v10a62.86 62.86 0 0162.78 62.79h10a72.87 72.87 0 00-72.78-72.79z"/></symbol><symbol shape-rendering="geometricPrecision" text-rendering="geometricPrecision" image-rendering="optimizeQuality" fill-rule="evenodd" clip-rule="evenodd" viewBox="0 0 333333 333333" id="twitter" xmlns="http://www.w3.org/2000/svg"><path d="M302077 0H31255C14069 0 1 14068 1 31256v270822c0 17186 14068 31254 31254 31254h270822c17186 0 31254-14068 31254-31254l2-270824C333333 14068 319265 0 302079 0h-2zm-33549 103487c-7489 3350-15558 5575-23983 6568 8632-5170 15233-13361 18384-23115-8068 4772-17034 8271-26535 10143-7640-8117-18490-13163-30510-13163-23080 0-41766 18697-41766 41763 0 3256 361 6440 1068 9512-34728-1760-65516-18386-86126-43680-3697 6378-5654 13630-5654 21004v5c0 14483 7354 27292 18573 34762-6847-204-13287-2113-18941-5207v522c0 20254 14396 37154 33525 40974-3505 952-7204 1477-11015 1477-2700 0-5301-278-7887-748 5343 16587 20765 28679 39029 29032-14320 11219-32306 17899-51914 17899-3384 0-6681-207-9974-602 18535 11893 40492 18780 64080 18780 76848 0 118908-63685 118908-118903 0-1835-41-3613-117-5410 8162-5839 15238-13207 20840-21595l19-19-4 2z" fill="#1da1f2"/></symbol><symbol shape-rendering="geometricPrecision" text-rendering="geometricPrecision" image-rendering="optimizeQuality" fill-rule="evenodd" clip-rule="evenodd" viewBox="0 0 333333 333333" id="whatsapp" xmlns="http://www.w3.org/2000/svg"><path d="M302077 0H31255C14069 0 1 14068 1 31256v270822c0 17186 14068 31254 31254 31254h270822c17186 0 31254-14068 31254-31254l2-270824C333333 14068 319265 0 302079 0h-2zm-62988 98696c-17931-17968-41780-27850-67183-27850-52328-1-94918 42593-94918 94959 0 16727 4382 33089 12684 47464l-13479 49218 50343-13212c13883 7563 29502 11572 45356 11572h38c52331 0 94957-42594 94957-94957 0-25381-9882-49217-27813-67179l14-14zm-67155 146128c-14182 0-28074-3822-40193-11011l-2890-1725-29874 7824 7978-29119-1868-2991c-7943-12543-12089-27060-12089-41992 0-43527 35407-78948 78980-78948 21069 0 40919 8239 55809 23128 14897 14936 23089 34739 23089 55844-35 43558-35443 78980-78948 78980l7 11zm43269-59134c-2359-1200-14039-6922-16206-7714-2168-792-3748-1201-5356 1199-1570 2359-6134 7715-7524 9316-1391 1574-2765 1799-5124 598s-10035-3703-19088-11790c-7043-6285-11818-14070-13208-16428-1389-2358-156-3667 1053-4824 1091-1057 2361-2766 3557-4156 1200-1390 1573-2362 2361-3967 792-1574 406-2964-190-4157-598-1196-5356-12876-7295-17634-1905-4649-3892-4001-5352-4082-1390-71-2963-71-4530-71s-4157 594-6324 2959c-2168 2359-8313 8124-8313 19800 0 11680 8496 22945 9688 24555 1200 1570 16735 25560 40531 35826 5656 2431 10072 3891 13514 5022 5690 1795 10853 1535 14936 932 4564-672 14039-5730 16026-11272 1985-5546 1985-10291 1391-11272-563-1056-2133-1639-4529-2855l-18 15h-1z" fill="#01e675"/></symbol><symbol viewBox="0 0 1024 1024" id="wien-bot" xmlns="http://www.w3.org/2000/svg"><path d="M198.44 834.86l730.62-242.81c6.09 124.07-71.97 303.78-257.16 376.63-181.29 71.31-376.04 1.06-473.46-133.82zm450.7-635.27c-4.25-1.6-10.14-3.56-16.51-5.53l9.66-47c28.03-6.74 48.4-32.36 47.63-62.5-.89-34.91-28.52-61.31-63.37-60.55-34.59.76-61.88 28.58-61.68 62.87.11 19.9 10.62 38.1 26.17 49.54l-9.26 45.04c-139.74-25.34-256.06 19.87-350.5 119.27l-37.22-33.06c2.05-6.45 3.12-13.26 2.88-20.25-1.17-34.17-29.95-60.95-64.47-60.02-34.76.94-61.42 28.9-60.6 63.54.81 34.25 29.24 61.86 63.33 61.5 8.53-.09 16.74-2.07 24.23-5.52l37.88 33.65c-99.39 131.98-94.89 290.53-60.88 375.4 257.56-85.59 515.16-171.19 773.94-257.19C862.9 329.9 775.54 244.69 649.14 199.59zM419.65 436.83c1.18 34.25-27.71 64.66-61.74 65.02-34.09.36-62.52-27.25-63.33-61.5-.82-34.64 25.85-62.6 60.61-63.54 34.51-.93 63.29 25.86 64.46 60.02zm208.25-69.48c.88 34.51-25.95 63.09-60.25 64.21-34.19 1.11-64.62-27.93-64.81-61.88-.19-34.29 27.1-62.11 61.68-62.87 34.85-.77 62.49 25.64 63.38 60.54z" fill="none" stroke="#f1636b" stroke-width="33.692" stroke-linecap="round" stroke-linejoin="round" stroke-miterlimit="10"/></symbol><symbol viewBox="0 0 123.24 123.24" id="wifi" xmlns="http://www.w3.org/2000/svg"><path fill="#292929" d="M105.1 48.92a61.326 61.326 0 00-19.54-13.18c-7.58-3.21-15.63-4.83-23.93-4.83s-16.35 1.63-23.93 4.83c-7.32 3.1-13.9 7.53-19.54 13.18l-4.35-4.35c6.21-6.21 13.44-11.09 21.5-14.49 8.34-3.53 17.2-5.32 26.33-5.32s17.99 1.79 26.33 5.32a67.51 67.51 0 0121.5 14.49l-4.37 4.35zM80.75 75.78c-5.11-5.11-11.9-7.92-19.13-7.92S47.6 70.67 42.5 75.78l-4.35-4.35c6.27-6.27 14.61-9.73 23.48-9.73s17.21 3.45 23.48 9.73l-4.36 4.35z"/><path fill="#292929" d="M92.92 62.27c-8.36-8.36-19.48-12.96-31.3-12.96s-22.94 4.6-31.3 12.96l-4.35-4.35c9.52-9.52 22.19-14.77 35.65-14.77s26.13 5.24 35.65 14.77l-4.35 4.35zM61.62 98.65c-5.09 0-9.24-4.14-9.24-9.24s4.14-9.24 9.24-9.24 9.24 4.14 9.24 9.24-4.14 9.24-9.24 9.24zm0-12.32c-1.7 0-3.08 1.38-3.08 3.08s1.38 3.08 3.08 3.08 3.08-1.38 3.08-3.08-1.38-3.08-3.08-3.08z"/></symbol><symbol shape-rendering="geometricPrecision" text-rendering="geometricPrecision" image-rendering="optimizeQuality" fill-rule="evenodd" clip-rule="evenodd" viewBox="0 0 1333.34 1333.33" id="xing" xmlns="http://www.w3.org/2000/svg"><path d="M1208.31 0H125.02C56.28 0 0 56.27 0 125.02v1083.29c0 68.74 56.28 125.02 125.02 125.02h1083.29c68.74 0 125.02-56.28 125.02-125.02l.01-1083.3c0-68.74-56.28-125.02-125.02-125.02h-.01zM876.22 260.36c-17.5 0-25.09 11.03-31.37 22.32 0 0-252.48 447.75-260.8 462.45.43.8 166.53 305.52 166.53 305.52 5.81 10.39 14.79 22.32 32.74 22.32h117.06c7.06 0 12.58-2.67 15.56-7.49 3.12-5 3.04-11.61-.24-18.11L750.48 745.5a.747.747 0 01-.12-.39c0-.14.04-.28.12-.39l259.49-458.8c3.25-6.47 3.33-13.08.24-18.09-2.99-4.82-8.52-7.48-15.58-7.48h-118.4zM383.86 420.84c-7.06 0-13 2.48-15.98 7.32-3.09 5.01-2.61 11.46.67 17.98l79.24 137.17c.13.27.13.43 0 .67L323.27 803.72c-3.25 6.48-3.09 12.97 0 17.98 2.98 4.82 8.26 7.99 15.31 7.99h117.2c17.52 0 25.97-11.83 31.96-22.65 0 0 121.78-215.38 126.52-223.74-.48-.78-80.57-140.5-80.57-140.5-5.83-10.39-14.65-21.97-32.63-21.97h-117.2z" fill="#046064"/></symbol><symbol shape-rendering="geometricPrecision" text-rendering="geometricPrecision" image-rendering="optimizeQuality" fill-rule="evenodd" clip-rule="evenodd" viewBox="0 0 333333 333333" id="youtube" xmlns="http://www.w3.org/2000/svg"><path d="M302077 0H31255C14069 0 1 14068 1 31256v270822c0 17186 14068 31254 31254 31254h270822c17186 0 31254-14068 31254-31254l2-270824C333333 14068 319265 0 302079 0h-2zm-38146 126961s-1939-13688-7905-19698c-7561-7905-16026-7956-19896-8414-27768-2023-69473-2023-69473-2023h-73s-41686 0-69469 2023c-3885 473-12339 506-19896 8414-5970 6010-7868 19698-7868 19698s-1976 16063-1976 32159v15052c0 16063 1975 32158 1975 32158s1939 13688 7868 19709c7557 7905 17489 7648 21923 8491 15897 1518 67531 1975 67531 1975s41742-74 69509-2059c3885-459 12336-506 19896-8414 5970-6010 7905-19713 7905-19713s1977-16063 1977-32158v-15051c-40-16063-2016-32158-2016-32158l-11 10-1-1zm-117844 65472v-55811l53644 27998-53644 27812z" fill="red"/></symbol><symbol viewBox="0 0 123.14 123.14" id="zoom" xmlns="http://www.w3.org/2000/svg"><path fill="none" d="M0 0h123.14v123.14H0z"/><path d="M103.74 99.44L73 68.69a30.84 30.84 0 10-4.25 4.24l30.75 30.76zM24.56 49.21a24.71 24.71 0 1124.71 24.71 24.74 24.74 0 01-24.71-24.71z"/><path d="M64.64 46.21H52.25V33.83h-6v12.38H33.87v6h12.38v12.38h6V52.21h12.39v-6z"/></symbol></svg>