<svg height="28" viewBox="0 0 200 200" width="28" xmlns="http://www.w3.org/2000/svg"><g fill="#181715"><path d="m184.41 49.35v-.35c0-3-.08-6.09-.24-9.13l-.24-4.74h-68.08l-.24 4.74c-.16 3-.24 6.11-.24 9.13v.38c0 39.59 12.38 70.27 29.52 75.3v40.43h-19.89v10h50.09v-10h-20.2v-40.46c17.11-5.02 29.52-35.71 29.52-75.3zm-59-.38c0-1.28 0-2.57 0-3.87h48.94v3.87.38c0 4.48-.18 8.79-.5 12.93l-9.16 4.72a9.62 9.62 0 0 1 -9-.09 19.64 19.64 0 0 0 -16.31-1l-12.67 4.83a161.47 161.47 0 0 1 -1.38-21.34zm3.1 31.77 14.49-5.54a9.64 9.64 0 0 1 8 .52 19.62 19.62 0 0 0 18.26.18l3.26-1.67c-4 25.11-13.7 41.16-22.62 41.16-8.13 0-16.9-13.31-21.43-34.65z"/><path d="m100.08 113.9v-88.84h-5c-18.31 0-32.08 30.21-32.08 70.26v3.54l27.12 11v10.27h-15.26v44.82a15.07 15.07 0 0 0 30.14 0v-44.83h-4.92zm-19.56-62.81c2.79-6.72 6.15-11.63 9.56-14.14v62.11l-17.08-6.92c.31-15.59 3-30.06 7.52-41.05zm14.48 113.85a5.07 5.07 0 0 1 -10.14 0v-34.82h10.14z"/><path d="m44.71 53.53h-4.84v-28.32h-10v28.32h-4.75v-28.32h-10v33.41c0 22.1 6.88 35.46 14.79 39.38v15.88h-10.07v50.84a15.07 15.07 0 0 0 30.14 0v-50.84h-10.07v-15.88c8-3.92 14.8-17.28 14.8-39.38v-33.41h-10zm-4.71 111.19a5.07 5.07 0 0 1 -10.14 0v-40.84h10.14zm-5.07-75.5c-3.14 0-8.67-9.61-9.64-25.69h19.27c-.96 16.05-6.5 25.69-9.65 25.69z"/></g></svg>