<svg height="28" viewBox="0 0 200 200" width="28" xmlns="http://www.w3.org/2000/svg"><g fill="#1a1a18"><path d="m67.58 69.41a14.69 14.69 0 1 0 -2.42.2 15.19 15.19 0 0 0 2.42-.2zm-5.19-10.71a4.81 4.81 0 0 1 2-8.64 5.35 5.35 0 0 1 .79-.06 4.7 4.7 0 0 1 2.79.91 4.8 4.8 0 0 1 -5.61 7.79z"/><path d="m155.2 169.91a5.1 5.1 0 1 0 4.9 5.3 5.11 5.11 0 0 0 -4.9-5.3z"/><path d="m112.24 64.47 2.76-1.38v-3.09c0-10.69-5-25.94-5.26-26.58l-.86-2.61-66.79-16.64-6.59 13.66 9 4.34 3.06-6.34 53.5 13.34a100.86 100.86 0 0 1 3.79 17.77c-12.36 5.83-41.5 18.33-41.85 18.46l-5.65 2.43 3.52 5c9.44 13.47 23.83 28.51 32.81 37.44-3.31 10.34-12 31.86-32.55 56.49l7.68 6.4c23.84-28.6 32.65-53.55 35.34-62.95l.81-2.86-2.12-2.08c-7.43-7.3-20.45-20.58-30.12-33.2 4.7-2 11.65-5 18.56-8.09l18.69 42v64.02h10v-66.06l-19.52-43.94c4.89-2.25 9.16-4.21 11.79-5.53z"/></g></svg>