<svg width="48" height="54" fill="none" xmlns="http://www.w3.org/2000/svg">
	<g filter="url(#a)">
		<path fill-rule="evenodd" clip-rule="evenodd" d="M25.391 38.736c-.378.364-.84.693-1.391.693-.552 0-1.024-.313-1.391-.693C19.416 35.432 10 28.408 10 19.591 10 12.085 16.268 6 24 6s14 6.085 14 13.591c0 8.817-9.169 15.841-12.609 19.145Z" fill="#fff"/>
	</g>
	<path fill-rule="evenodd" clip-rule="evenodd" d="M24 31.768c6.572 0 11.9-5.3 11.9-11.84C35.9 13.39 30.572 8.09 24 8.09s-11.9 5.3-11.9 11.84c0 6.538 5.328 11.839 11.9 11.839Z" fill="#73cee5"/>
	<defs>
		<filter id="a" x="0" y="0" width="48" height="53.429" filterUnits="userSpaceOnUse" color-interpolation-filters="sRGB">
			<feFlood flood-opacity="0" result="BackgroundImageFix"/>
			<feColorMatrix in="SourceAlpha" values="0 0 0 0 0 0 0 0 0 0 0 0 0 0 0 0 0 0 127 0"/>
			<feOffset dy="4"/>
			<feGaussianBlur stdDeviation="5"/>
			<feColorMatrix values="0 0 0 0 0.254902 0 0 0 0 0.254902 0 0 0 0 0.254902 0 0 0 0.49 0"/>
			<feBlend in2="BackgroundImageFix" result="effect1_dropShadow"/>
			<feBlend in="SourceGraphic" in2="effect1_dropShadow" result="shape"/>
		</filter>
	</defs>
</svg>