<svg width="48" height="54" fill="none" xmlns="http://www.w3.org/2000/svg">
	<g filter="url(#a)">
		<path fill-rule="evenodd" clip-rule="evenodd" d="M25.391 38.736c-.378.364-.84.693-1.391.693-.552 0-1.024-.313-1.391-.693C19.416 35.432 10 28.408 10 19.591 10 12.085 16.268 6 24 6s14 6.085 14 13.591c0 8.817-9.169 15.841-12.609 19.145Z" fill="#fff"/>
	</g>
	<path fill-rule="evenodd" clip-rule="evenodd" d="M24 31.768c6.572 0 11.9-5.3 11.9-11.84C35.9 13.39 30.572 8.09 24 8.09s-11.9 5.3-11.9 11.84c0 6.538 5.328 11.839 11.9 11.839Z" fill="#f3f1ef"/>

	<g viewBox="0 0 200 200" transform="translate(14 10) scale(0.1)">
		<path class="cls-1" d="M184.41,49.35V49c0-3-.08-6.09-.24-9.13l-.24-4.74H115.85l-.24,4.74c-.16,3-.24,6.11-.24,9.13v.38c0,39.59,12.38,70.27,29.52,75.3v40.43H125v10h50.09v-10H154.89V124.65C172,119.63,184.41,88.94,184.41,49.35Zm-59-.38c0-1.28,0-2.57,0-3.87h48.94c0,1.29,0,2.59,0,3.87v.38c0,4.48-.18,8.79-.5,12.93L164.69,67a9.62,9.62,0,0,1-9-.09,19.64,19.64,0,0,0-16.31-1l-12.67,4.83a161.47,161.47,0,0,1-1.38-21.34Zm3.1,31.77L143,75.2a9.64,9.64,0,0,1,8,.52,19.62,19.62,0,0,0,18.26.18l3.26-1.67c-4,25.11-13.7,41.16-22.62,41.16C141.77,115.39,133,102.08,128.47,80.74Z"/><path class="cls-1" d="M100.08,113.9V25.06h-5C76.77,25.06,63,55.27,63,95.32v3.54l27.12,11v10.27H74.86v44.82a15.07,15.07,0,0,0,30.14,0V120.12h-4.92ZM80.52,51.09c2.79-6.72,6.15-11.63,9.56-14.14V99.06L73,92.14C73.31,76.55,76,62.08,80.52,51.09ZM95,164.94a5.07,5.07,0,0,1-10.14,0V130.12H95Z"/><path class="cls-1" d="M44.71,53.53H39.87V25.21h-10V53.53H25.12V25.21h-10V58.62C15.12,80.72,22,94.08,29.91,98v15.88H19.84v50.84a15.07,15.07,0,0,0,30.14,0V113.88H39.91V98c8-3.92,14.8-17.28,14.8-39.38V25.21h-10ZM40,164.72a5.07,5.07,0,0,1-10.14,0V123.88H40Zm-5.07-75.5c-3.14,0-8.67-9.61-9.64-25.69H44.56C43.6,79.58,38.06,89.22,34.91,89.22Z"/>
	</g>

	<defs>
	<style>.cls-1{fill:#1a1a18;}</style>
		<filter id="a" x="0" y="0" width="48" height="53.429" filterUnits="userSpaceOnUse" color-interpolation-filters="sRGB">
			<feFlood flood-opacity="0" result="BackgroundImageFix"/>
			<feColorMatrix in="SourceAlpha" values="0 0 0 0 0 0 0 0 0 0 0 0 0 0 0 0 0 0 127 0"/>
			<feOffset dy="4"/>
			<feGaussianBlur stdDeviation="5"/>
			<feColorMatrix values="0 0 0 0 0.254902 0 0 0 0 0.254902 0 0 0 0 0.254902 0 0 0 0.49 0"/>
			<feBlend in2="BackgroundImageFix" result="effect1_dropShadow"/>
			<feBlend in="SourceGraphic" in2="effect1_dropShadow" result="shape"/>
		</filter>
	</defs>
</svg>