<svg  xmlns="http://www.w3.org/2000/svg" width="28" height="28" viewBox="0 0 200 200"><defs><style>.cls-1{fill:#1a1a18;}</style></defs><path class="cls-1" d="M146.76,141.61A15,15,0,1,0,140,170a15.21,15.21,0,0,0,4.7-.76,15,15,0,0,0,2.07-27.64Zm-2.29,15.64a5,5,0,0,1-9.22-.69,5,5,0,0,1,7-6A5,5,0,0,1,144.47,157.25Z"/><polygon class="cls-1" points="59.94 135 29.85 135 29.85 145 64.06 145 78.97 130.18 71.91 123.09 59.94 135"/><path class="cls-1" d="M110.77,52.46a15,15,0,1,0-7.49-8.7A14.87,14.87,0,0,0,110.77,52.46Zm2.29-15.64h0a5,5,0,0,1,4.47-2.75,4.9,4.9,0,0,1,2.25.54,5,5,0,1,1-6.72,2.21Z"/><path class="cls-1" d="M86.33,112.13l8.18,5.74c6.16-8.77,10.57-16,17.88-28.07,1.92-3.15,4-6.65,6.45-10.59,4.44,7.69,9.66,14.46,12.19,16.54l2,1.68,2.53-.73a111.5,111.5,0,0,0,29-12.88l-5.16-8.56a101.24,101.24,0,0,1-23.7,11A93.69,93.69,0,0,1,123.78,67l-.53-1.2-1-.78c-6.73-5-20-11.69-28.33-14.3-11.23-3.51-24.41-4-28.63-3.35l-2.6.42-1.12,2.39a111.56,111.56,0,0,0-9.44,30.27l9.84,1.77a101.71,101.71,0,0,1,7.43-25.11h.09a83.54,83.54,0,0,1,16.32,1.81L66.11,111.47l26.06,23L92,170l10,0,.19-40-24.3-21.49L95.33,61.88a123.41,123.41,0,0,1,17.11,8.63c-3.32,5.41-6.13,10-8.59,14.1C96.64,96.47,92.3,103.63,86.33,112.13Z"/></svg>