<svg height="28" viewBox="0 0 200 200" width="28" xmlns="http://www.w3.org/2000/svg"><g fill="#1a1a18"><path d="m146.76 141.61a15 15 0 1 0 -6.76 28.39 15.21 15.21 0 0 0 4.7-.76 15 15 0 0 0 2.07-27.64zm-2.29 15.64a5 5 0 0 1 -9.22-.69 5 5 0 0 1 7-6 5 5 0 0 1 2.22 6.69z"/><path d="m59.94 135h-30.09v10h34.21l14.91-14.82-7.06-7.09z"/><path d="m110.77 52.46a15 15 0 1 0 -7.49-8.7 14.87 14.87 0 0 0 7.49 8.7zm2.29-15.64a5 5 0 0 1 4.47-2.75 4.9 4.9 0 0 1 2.25.54 5 5 0 1 1 -6.72 2.21z"/><path d="m86.33 112.13 8.18 5.74c6.16-8.77 10.57-16 17.88-28.07 1.92-3.15 4-6.65 6.45-10.59 4.44 7.69 9.66 14.46 12.19 16.54l2 1.68 2.53-.73a111.5 111.5 0 0 0 29-12.88l-5.16-8.56a101.24 101.24 0 0 1 -23.7 11 93.69 93.69 0 0 1 -11.92-19.26l-.53-1.2-1-.78c-6.73-5-20-11.69-28.33-14.3-11.23-3.51-24.41-4-28.63-3.35l-2.6.42-1.12 2.39a111.56 111.56 0 0 0 -9.44 30.27l9.84 1.77a101.71 101.71 0 0 1 7.43-25.11h.09a83.54 83.54 0 0 1 16.32 1.81l-19.7 52.55 26.06 23-.17 35.53h10l.19-40-24.3-21.49 17.44-46.63a123.41 123.41 0 0 1 17.11 8.63c-3.32 5.41-6.13 10-8.59 14.1-7.21 11.86-11.55 19.02-17.52 27.52z"/></g></svg>